HIERARCHY
ROOT SpineBase
{
  OFFSET 0.000000 0.000000 0.000000
  CHANNELS 6 Xposition Yposition Zposition Zrotation Xrotation Yrotation
  JOINT SpineMid
  {
    OFFSET 0.000000 33.858586 0.000000
    CHANNELS 3 Zrotation Xrotation Yrotation
    JOINT SpineShoulder
    {
      OFFSET 0.021311 24.935302 -0.842859
      CHANNELS 3 Zrotation Xrotation Yrotation
      JOINT Neck
      {
        OFFSET 0.024713 8.178470 -0.625201
        CHANNELS 3 Zrotation Xrotation Yrotation
        JOINT Head
        {
          OFFSET 3.023490 11.817929 5.432713
          CHANNELS 3 Zrotation Xrotation Yrotation
          End Site
          {
            OFFSET 0 0 0
          }
        }
      }
      JOINT ShoulderLeft
      {
        OFFSET -10.807052 -2.923909 19.628665
        CHANNELS 3 Zrotation Xrotation Yrotation
        JOINT ElbowLeft
        {
          OFFSET 7.562992 -16.679463 -26.318692
          CHANNELS 3 Zrotation Xrotation Yrotation
          JOINT WristLeft
          {
            OFFSET 7.825093 -18.493984 -11.623966
            CHANNELS 3 Zrotation Xrotation Yrotation
            JOINT HandLeft
            {
              OFFSET -3.482758 -3.541660 3.250928
              CHANNELS 3 Zrotation Xrotation Yrotation
              JOINT HandTipLeft
              {
                OFFSET -1.583423 -7.546225 -2.368744
                CHANNELS 3 Zrotation Xrotation Yrotation
                End Site
                {
                  OFFSET 0 0 0
                }
              }
              JOINT ThumbLeft
              {
                OFFSET 6.440369 -2.370732 0.976499
                CHANNELS 3 Zrotation Xrotation Yrotation
                End Site
                {
                  OFFSET 0 0 0
                }
              }
            }
          }
        }
      }
      JOINT ShoulderRight
      {
        OFFSET -1.928694 -6.597148 -17.997763
        CHANNELS 3 Zrotation Xrotation Yrotation
        JOINT ElbowRight
        {
          OFFSET -2.743180 -21.608139 -8.396519
          CHANNELS 3 Zrotation Xrotation Yrotation
          JOINT WristRight
          {
            OFFSET -16.252255 2.343462 13.986276
            CHANNELS 3 Zrotation Xrotation Yrotation
            JOINT HandRight
            {
              OFFSET -4.478726 -1.031610 3.942054
              CHANNELS 3 Zrotation Xrotation Yrotation
              JOINT HandTipRight
              {
                OFFSET -0.168096 -3.976200 -0.342449
                CHANNELS 3 Zrotation Xrotation Yrotation
                End Site
                {
                  OFFSET 0 0 0
                }
              }
              JOINT ThumbRight
              {
                OFFSET 0.629308 2.859866 -2.679684
                CHANNELS 3 Zrotation Xrotation Yrotation
                End Site
                {
                  OFFSET 0 0 0
                }
              }
            }
          }
        }
      }
    }
  }
  JOINT HipLeft
  {
    OFFSET -1.802522 0.130010 -6.394212
    CHANNELS 3 Zrotation Xrotation Yrotation
    JOINT KneeLeft
    {
      OFFSET -11.784871 -37.025516 8.341917
      CHANNELS 3 Zrotation Xrotation Yrotation
      JOINT AnkleLeft
      {
        OFFSET -9.046303 -30.352878 25.415461
        CHANNELS 3 Zrotation Xrotation Yrotation
        JOINT FootLeft
        {
          OFFSET 5.488739 -4.033483 -15.523102
          CHANNELS 3 Zrotation Xrotation Yrotation
          End Site
          {
            OFFSET 0 0 0
          }
        }
      }
    }
  }
  JOINT HipRight
  {
    OFFSET 2.182664 0.618099 -1.593696
    CHANNELS 3 Zrotation Xrotation Yrotation
    JOINT KneeRight
    {
      OFFSET -6.490442 -30.658533 -6.191335
      CHANNELS 3 Zrotation Xrotation Yrotation
      JOINT AnkleRight
      {
        OFFSET -7.995967 -40.867414 7.147780
        CHANNELS 3 Zrotation Xrotation Yrotation
        JOINT FootRight
        {
          OFFSET -1.559656 -5.588515 8.109502
          CHANNELS 3 Zrotation Xrotation Yrotation
          End Site
          {
            OFFSET 0 0 0
          }
        }
      }
    }
  }
}
MOTION
Frames: 10
Frame Time: 0.033333
-17.489065 80.577156 333.656866 -3.062564 1.584747 -13.135099 -0.131195 -0.542426 13.047058 -0.267253 0.019448 -0.166251 9.301473 -1.362686 -2.150439 0.000000 0.000000 0.000000 4.530653 -2.284927 -1.710663 -0.073070 1.967366 1.774455 -3.964864 -5.890630 2.168649 -0.227864 7.984396 -1.335286 0.000000 0.000000 0.000000 0.000000 0.000000 0.000000 15.254110 -10.317399 -1.962215 -20.540579 4.440773 85.220700 -16.655364 -17.891636 -12.420000 -85.910435 -60.410775 -146.278127 0.000000 0.000000 0.000000 0.000000 0.000000 0.000000 18.119515 17.275779 10.459589 -25.189094 -14.267342 -8.845707 0.657159 -18.360140 16.994895 0.000000 0.000000 0.000000 5.841918 -6.705351 14.492872 -0.325558 4.730297 -0.714867 -4.148657 14.594951 -10.283990 0.000000 0.000000 0.000000
-17.062027 80.160151 333.735551 -3.057965 1.276671 16.026097 -0.716004 -0.309407 -16.138352 -0.353511 -0.138473 -0.191826 9.832909 -0.475993 -2.350947 0.000000 0.000000 0.000000 4.382406 -1.792223 -0.773571 -0.555544 2.222975 1.664390 -3.288318 -7.245173 2.029121 -1.065711 8.585852 -1.400751 0.000000 0.000000 0.000000 0.000000 0.000000 0.000000 14.354311 -10.155045 -1.556808 -19.129002 8.906950 87.913032 5.617918 -21.762576 6.819591 -114.375029 -47.869390 -146.740640 0.000000 0.000000 0.000000 0.000000 0.000000 0.000000 22.053165 8.718358 -18.734982 -19.302136 -9.633784 -6.605428 -2.764380 -25.113511 28.615325 0.000000 0.000000 0.000000 2.636414 -9.477481 -14.835859 0.473920 5.633586 -0.537385 -11.960097 18.043814 -21.434288 0.000000 0.000000 0.000000
-17.189006 79.190720 334.109120 -3.749900 0.512465 33.515747 -0.520706 0.010511 -33.651907 -0.406497 -0.232411 -0.219788 9.994630 0.325625 -2.246400 0.000000 0.000000 0.000000 4.205131 -1.223807 0.412047 -0.368498 1.734600 0.639816 -3.192643 -8.202935 2.772353 -0.491866 8.690935 -2.034199 0.000000 0.000000 0.000000 0.000000 0.000000 0.000000 14.510423 -13.316202 -0.670272 -18.992747 12.467230 89.798495 87.602677 -2.811138 23.599746 160.607436 -50.843037 -146.690774 0.000000 0.000000 0.000000 0.000000 0.000000 0.000000 24.260780 4.429181 -36.456066 -14.723676 -4.851510 -4.960393 -6.662785 -35.568131 48.513184 0.000000 0.000000 0.000000 2.848560 -10.112200 -32.929095 -1.953316 3.124247 0.564239 -11.212757 14.989241 -18.112146 0.000000 0.000000 0.000000
-17.484715 78.753024 334.440173 -4.679846 -0.307938 26.147840 -0.246245 -0.134740 -26.332910 -0.511308 -0.397689 -0.259297 10.124636 0.876932 -1.905950 0.000000 0.000000 0.000000 4.133794 -0.640805 1.601667 -0.775002 0.854242 -0.256664 -4.214577 -6.792327 0.431458 -2.790166 6.827310 1.978955 0.000000 0.000000 0.000000 0.000000 0.000000 0.000000 5.733362 -5.957821 1.144536 -9.411018 1.865923 84.773914 112.629110 -0.090089 18.604522 152.522751 -44.507000 -125.463500 0.000000 0.000000 0.000000 0.000000 0.000000 0.000000 24.449716 8.470034 -30.278783 -11.133409 1.374944 -3.845533 -11.222197 -42.215824 61.484173 0.000000 0.000000 0.000000 7.964375 -8.042156 -26.141567 -5.959098 -2.481965 1.826198 -6.343726 19.812789 -15.195267 0.000000 0.000000 0.000000
-17.974148 78.793235 334.923232 -5.824536 -1.471000 -12.135552 0.141948 -0.011762 11.865874 -0.681230 -0.716527 -0.319669 10.590589 1.311183 -1.494299 0.000000 0.000000 0.000000 4.013028 0.411623 3.385846 0.060825 -0.621664 -2.607046 -2.902517 -8.605663 4.833113 1.133068 7.865594 -3.168144 0.000000 0.000000 0.000000 0.000000 0.000000 0.000000 2.767367 -0.493003 2.169236 -7.249005 -12.801405 82.653456 -36.651781 -21.742376 -2.706358 -50.626596 -20.054082 -118.106199 0.000000 0.000000 0.000000 0.000000 0.000000 0.000000 15.814180 21.958565 7.134114 -8.747471 8.370549 -3.704509 -16.679415 -45.444739 64.658900 0.000000 0.000000 0.000000 12.959157 4.211474 9.901508 -10.924348 -10.664269 2.660066 1.872864 29.084419 -12.241803 0.000000 0.000000 0.000000
-18.544173 79.063862 335.374164 -6.966532 -2.650598 -24.740453 0.321119 0.255399 24.355362 -0.844908 -1.044521 -0.383863 11.075009 1.701221 -1.058886 0.000000 0.000000 0.000000 4.135585 3.928936 5.823707 2.883610 -5.692948 -7.616812 -1.936490 -7.963673 11.980926 5.181196 0.781599 -8.722875 0.000000 0.000000 0.000000 0.000000 0.000000 0.000000 4.264756 3.144674 1.777058 -8.974293 -25.848221 86.034638 -63.478854 13.101851 -27.021860 -8.010843 -48.759331 -120.532296 0.000000 0.000000 0.000000 0.000000 0.000000 0.000000 12.621552 25.785640 20.388508 -7.552498 13.354434 -3.944398 -21.660672 -44.521343 61.761956 0.000000 0.000000 0.000000 10.412516 9.615501 21.955528 -13.734259 -15.903921 1.769657 36.395389 71.723730 -64.610617 0.000000 0.000000 0.000000
-19.160619 79.600950 335.801058 -8.110795 -3.861547 -29.453633 0.412093 0.235051 28.908588 -0.925454 -1.295724 -0.448020 11.038706 1.381999 -0.064725 0.000000 0.000000 0.000000 3.867948 4.781967 7.948143 8.194771 -10.191524 -14.234812 -0.898184 -6.590592 24.303075 10.752284 -7.810691 -18.376233 0.000000 0.000000 0.000000 0.000000 0.000000 0.000000 11.481760 6.208164 -1.317507 -13.198816 -38.246192 94.873263 -57.677017 24.509476 -30.526221 -2.790565 -57.520564 -131.572857 0.000000 0.000000 0.000000 0.000000 0.000000 0.000000 12.885080 27.900168 25.292345 -7.621498 15.820201 -4.334295 -22.180754 -39.383497 48.761864 0.000000 0.000000 0.000000 7.509053 11.094525 27.235651 -13.935208 -19.195830 0.716735 132.196829 64.859419 -155.200636 0.000000 0.000000 0.000000
-19.658006 80.263958 336.175108 -9.154596 -5.029992 -30.859864 0.481309 0.013745 30.129543 -0.874859 -1.407638 -0.498573 11.445227 0.467250 0.797197 0.000000 0.000000 0.000000 3.060354 3.191383 10.034383 14.786629 -14.230399 -22.247680 5.908972 -1.241300 44.569658 8.065994 -20.476732 -35.773544 0.000000 0.000000 0.000000 0.000000 0.000000 0.000000 26.397404 6.883256 -8.574570 -17.737656 -48.456443 113.396983 -50.627981 30.375785 -31.422736 -7.609165 -67.159078 -163.311756 0.000000 0.000000 0.000000 0.000000 0.000000 0.000000 14.501468 29.147021 26.532595 -8.816309 15.094535 -4.361397 -18.443204 -36.033547 32.839355 0.000000 0.000000 0.000000 5.144670 12.981631 28.952708 -14.221118 -22.604804 -0.257576 151.251100 53.323841 -162.253579 0.000000 0.000000 0.000000
-19.926856 80.930273 336.534212 -9.886347 -6.174054 -31.846433 0.467602 -0.328701 30.935896 -0.675196 -1.391687 -0.526620 11.535707 -0.329344 1.597233 0.000000 0.000000 0.000000 1.521109 -1.055598 12.124852 21.945862 -17.887508 -32.249265 13.659952 12.240438 67.714748 -10.354867 -28.971590 -58.500687 0.000000 0.000000 0.000000 0.000000 0.000000 0.000000 45.288793 2.545938 -17.569056 -19.729534 -52.253113 141.701554 -48.717936 23.722000 -23.700463 -39.368839 -69.251259 129.624997 0.000000 0.000000 0.000000 0.000000 0.000000 0.000000 15.681388 30.030448 27.325949 -8.809398 17.039770 -4.799256 -18.785295 -41.269794 23.250237 0.000000 0.000000 0.000000 0.039250 17.090830 30.499278 -13.025481 -28.551952 -1.300915 163.549245 53.952389 -149.736491 0.000000 0.000000 0.000000
-19.903870 81.404376 336.930459 -10.292072 -7.319791 -32.462237 0.270502 -0.800712 31.396509 -0.407852 -1.285739 -0.544610 10.958983 -1.373550 2.732507 0.000000 0.000000 0.000000 -0.499384 -8.153298 14.054314 28.301110 -19.723573 -43.869956 16.203406 35.310842 84.492040 -35.994412 -28.534566 -76.206265 0.000000 0.000000 0.000000 0.000000 0.000000 0.000000 61.838450 -4.813900 -24.319829 -30.923550 -45.427191 164.527240 -45.456968 4.843256 -13.038460 -47.779375 -51.039518 124.183203 0.000000 0.000000 0.000000 0.000000 0.000000 0.000000 16.060565 30.617408 27.773313 -8.469048 18.729796 -5.167538 -17.666571 -43.061555 9.893306 0.000000 0.000000 0.000000 -1.010758 17.504734 31.466878 -12.465974 -28.400206 -1.524242 166.027253 61.679583 -134.267802 0.000000 0.000000 0.000000
